<svg width="51" height="51" viewBox="0 0 51 51" fill="none" xmlns="http://www.w3.org/2000/svg">
<path d="M11.8105 7.74976H15.8105V11.7498H11.8105V7.74976Z" fill="#FB8A5D"/>
<path d="M11.8105 15.7498H15.8105V19.7498H11.8105V15.7498Z" fill="#FB8A5D"/>
<path d="M11.8105 23.7507H15.8105V27.7507H11.8105V23.7507Z" fill="#FB8A5D"/>
<path d="M11.8103 31.7497H15.8103V35.7497H11.8103V31.7497Z" fill="#FB8A5D"/>
<path d="M19.8135 7.74976H23.8135V11.7498H19.8135V7.74976Z" fill="#FB8A5D"/>
<path d="M35.8108 23.7507H39.8108V27.7507H35.8108V23.7507Z" fill="#FB8A5D"/>
<path d="M35.8108 15.7498H39.8108V19.7498H35.8108V15.7498Z" fill="#FB8A5D"/>
<path d="M19.8135 15.7498H23.8135V19.7498H19.8135V15.7498Z" fill="#FB8A5D"/>
<path d="M35.8108 31.7497H39.8108V35.7497H35.8108V31.7497Z" fill="#FB8A5D"/>
<path d="M19.8135 23.7507H23.8135V27.7507H19.8135V23.7507Z" fill="#FB8A5D"/>
<path d="M35.8108 39.7505H39.8108V43.7505H35.8108V39.7505Z" fill="#FB8A5D"/>
<path d="M19.8135 31.7497H23.8135V35.7497H19.8135V31.7497Z" fill="#FB8A5D"/>
<path d="M48.7014 46.6841H46.7458V9.52851C46.7458 9.00986 46.5398 8.51246 46.1731 8.14572C45.8063 7.77899 45.3089 7.57295 44.7903 7.57295H31.1014V1.70629C31.1014 1.18764 30.8954 0.690239 30.5286 0.323501C30.1619 -0.0432365 29.6645 -0.249268 29.1458 -0.249268H5.67917C5.16052 -0.249268 4.66312 -0.0432365 4.29638 0.323501C3.92964 0.690239 3.72361 1.18764 3.72361 1.70629V46.6841H1.76806C1.24941 46.6841 0.752007 46.8901 0.385269 47.2568C0.0185311 47.6236 -0.1875 48.121 -0.1875 48.6396C-0.1875 49.1583 0.0185311 49.6557 0.385269 50.0224C0.752007 50.3891 1.24941 50.5952 1.76806 50.5952H48.7014C49.22 50.5952 49.7174 50.3891 50.0842 50.0224C50.4509 49.6557 50.6569 49.1583 50.6569 48.6396C50.6569 48.121 50.4509 47.6236 50.0842 47.2568C49.7174 46.8901 49.22 46.6841 48.7014 46.6841ZM7.63472 3.66184H27.1903V40.8174C27.1903 41.336 27.3963 41.8335 27.763 42.2002C28.1298 42.5669 28.6272 42.773 29.1458 42.773C29.6645 42.773 30.1619 42.5669 30.5286 42.2002C30.8954 41.8335 31.1014 41.336 31.1014 40.8174V11.4841H42.8347V46.6841H23.2792V40.8174C23.2792 40.2988 23.0731 39.8013 22.7064 39.4346C22.3397 39.0679 21.8423 38.8618 21.3236 38.8618H13.5014C12.9827 38.8618 12.4853 39.0679 12.1186 39.4346C11.7519 39.8013 11.5458 40.2988 11.5458 40.8174V46.6841H7.63472V3.66184ZM19.3681 46.6841H15.4569V42.773H19.3681V46.6841Z" fill="#FB8A5D"/>
</svg>
