<svg width="53" height="52" viewBox="0 0 53 52" fill="none" xmlns="http://www.w3.org/2000/svg">
<g clip-path="url(#clip0_316_812)">
<path fill-rule="evenodd" clip-rule="evenodd" d="M6.23117 0.732194C4.73947 2.38035 6.00918 5.30764 8.2156 5.30764C9.52995 5.30764 10.8779 3.9597 10.8779 2.64535C10.8779 0.402482 7.70976 -0.902038 6.23117 0.732194ZM15.7929 4.69367C15.5123 5.03158 15.1891 6.13745 15.0749 7.15117C14.9606 8.16447 14.7062 8.99388 14.5092 8.99388C14.3126 8.99388 13.464 8.62525 12.6231 8.17471C10.2721 6.91484 8.94588 7.09792 7.23055 8.91933C3.94202 12.4114 1.07576 19.1081 2.14108 20.8103C2.66494 21.6471 4.5822 21.9174 5.36777 21.2654C5.6893 20.9983 6.3479 19.695 6.83162 18.3684C7.31534 17.0422 7.8482 15.9568 8.01613 15.9568C8.18365 15.9568 8.55309 16.5171 8.83693 17.2023C9.12077 17.8871 9.85229 19.1372 10.4626 19.9797C11.0728 20.8222 11.8068 22.4888 12.0931 23.6831L12.6141 25.8547L10.7222 28.6239C8.71283 31.5647 8.43472 32.7054 9.47342 33.7445C11.1003 35.371 12.8418 34.0742 16.1693 28.7583C17.4795 26.6653 17.5012 26.5568 17.0167 24.5379C16.7435 23.3985 16.6079 22.3774 16.7161 22.2697C16.8238 22.1615 17.681 22.1963 18.6206 22.3467C19.8793 22.5478 21.0834 23.2518 23.1973 25.0225C26.1803 27.5205 27.5012 27.9457 28.6656 26.7816C29.8022 25.645 29.407 24.4941 27.1588 22.3938C23.6511 19.1167 22.5927 18.4397 20.2934 18.0039C19.0916 17.7757 18.0939 17.5447 18.0767 17.4898C18.0595 17.435 17.7314 16.7911 17.348 16.0592C16.6862 14.7968 16.6874 14.728 17.3718 14.728C18.9786 14.728 19.482 13.8142 19.74 10.4274C20.0648 6.17104 19.3276 4.07889 17.5021 4.07889C16.8426 4.07889 16.073 4.35536 15.7929 4.69367ZM37.5724 15.8544L37.5007 27.0155L33.5073 27.0286C30.6468 27.038 29.2882 27.2121 28.7189 27.643C27.7047 28.4097 26.408 28.4097 25.3939 27.643C24.9364 27.2969 23.6863 27.036 22.4486 27.0286L20.2983 27.0155V30.7017V34.388H35.9758C53.2995 34.388 52.9907 34.433 53.8648 31.7834C54.4111 30.1283 53.9434 28.619 52.5901 27.6712C51.8218 27.133 50.4189 27.0155 44.7708 27.0155H37.8878L38.0016 21.1937L38.1151 15.3719L42.9027 13.514L47.6907 11.6562L42.8196 9.82738L37.9488 7.99859L37.7964 6.34593C37.7125 5.43707 37.6117 9.71556 37.5724 15.8544ZM28.0111 9.47268C27.373 10.1108 27.3754 10.1989 28.0472 10.8071C28.7062 11.4034 28.8184 11.3977 29.3832 10.7379C29.9337 10.0952 29.93 9.95189 29.3476 9.40346C28.7664 8.85667 28.6198 8.86404 28.0111 9.47268ZM10.8779 39.4938V43.3988H25.7666C35.6068 43.3988 41.0969 43.2448 41.9574 42.945C44.4669 42.0701 45.1763 38.3982 43.1845 36.5944C42.3838 35.8698 41.3508 35.8141 26.6042 35.7052L10.8779 35.5889V39.4938ZM-1 48.3138V52H14.746H30.492L31.6322 51.0195C33.2566 49.622 33.2566 47.0056 31.6322 45.6081L30.492 44.6275H14.746H-1V48.3138Z" fill="#FB8A5D"/>
</g>
<defs>
<clipPath id="clip0_316_812">
<rect width="52" height="52" fill="white" transform="translate(0.5)"/>
</clipPath>
</defs>
</svg>