<svg width="53" height="53" viewBox="0 0 53 53" fill="none" xmlns="http://www.w3.org/2000/svg">
<g clip-path="url(#clip0_11_649)">
<path d="M50.7188 23.3871V9.46909L38.5855 5.05665V23.3871H36.8521V2.58713H16.0521V23.3871H14.3188V12.0417H12.5855V5.42349H9.11881V-0.249237H7.38548V5.42349H3.91881V12.0417H2.18548V23.3871H0.452148V49.8599H16.0521V51.7508H36.8521V49.8599H52.4521V23.3871H50.7188ZM5.65215 7.3144H10.8521V12.0417H5.65215V7.3144ZM3.91881 13.9326H12.5855V23.3871H3.91881V13.9326ZM16.0521 47.9689H2.18548V25.278H16.0521V47.9689ZM28.1855 49.8599H24.7188V40.4053H28.1855V49.8599ZM35.1188 49.8599H29.9188V38.5144H22.9855V49.8599H17.7855V4.47804H35.1188V49.8599ZM40.3188 7.68124L48.9855 10.8324V23.3871H47.2521V12.0417H45.5188V23.3871H43.7855V12.0417H42.0521V23.3871H40.3188V7.68124ZM45.5188 47.9689H42.0521V44.1871H45.5188V47.9689ZM50.7188 47.9689H47.2521V42.2962H40.3188V47.9689H36.8521V25.278H50.7188V47.9689Z" fill="#FB8A5D"/>
<path d="M14.3187 27.1659H3.9187V29.0568H14.3187V27.1659Z" fill="#FB8A5D"/>
<path d="M14.3189 30.948H3.91895V32.8389H14.3189V30.948Z" fill="#FB8A5D"/>
<path d="M14.3187 34.7311H3.9187V36.622H14.3187V34.7311Z" fill="#FB8A5D"/>
<path d="M14.3187 38.5115H3.9187V40.4024H14.3187V38.5115Z" fill="#FB8A5D"/>
<path d="M20.3857 8.25943V13.9322H25.5857V8.25943H20.3857ZM23.8524 12.0413H22.1191V10.1503H23.8524V12.0413Z" fill="#FB8A5D"/>
<path d="M27.3184 8.25943V13.9322H32.5184V8.25943H27.3184ZM30.785 12.0413H29.0517V10.1503H30.785V12.0413Z" fill="#FB8A5D"/>
<path d="M20.3857 15.8221V21.4948H25.5857V15.8221H20.3857ZM23.8524 19.6039H22.1191V17.713H23.8524V19.6039Z" fill="#FB8A5D"/>
<path d="M27.3184 15.8221V21.4948H32.5184V15.8221H27.3184ZM30.785 19.6039H29.0517V17.713H30.785V19.6039Z" fill="#FB8A5D"/>
<path d="M20.3857 23.3855V29.0582H25.5857V23.3855H20.3857ZM23.8524 27.1673H22.1191V25.2764H23.8524V27.1673Z" fill="#FB8A5D"/>
<path d="M27.3184 23.3855V29.0582H32.5184V23.3855H27.3184ZM30.785 27.1673H29.0517V25.2764H30.785V27.1673Z" fill="#FB8A5D"/>
<path d="M20.3857 30.948V36.6208H25.5857V30.948H20.3857ZM23.8524 34.7298H22.1191V32.8389H23.8524V34.7298Z" fill="#FB8A5D"/>
<path d="M27.3184 30.948V36.6208H32.5184V30.948H27.3184ZM30.785 34.7298H29.0517V32.8389H30.785V34.7298Z" fill="#FB8A5D"/>
<path d="M40.3193 27.1659H38.5859V29.0568H40.3193V27.1659Z" fill="#FB8A5D"/>
<path d="M45.5184 27.1659H42.0518V29.0568H45.5184V27.1659Z" fill="#FB8A5D"/>
<path d="M48.9855 27.1659H47.2522V29.0568H48.9855V27.1659Z" fill="#FB8A5D"/>
<path d="M40.3193 30.948H38.5859V32.8389H40.3193V30.948Z" fill="#FB8A5D"/>
<path d="M45.5184 30.948H42.0518V32.8389H45.5184V30.948Z" fill="#FB8A5D"/>
<path d="M48.9855 30.948H47.2522V32.8389H48.9855V30.948Z" fill="#FB8A5D"/>
<path d="M40.3193 34.7311H38.5859V36.622H40.3193V34.7311Z" fill="#FB8A5D"/>
<path d="M45.5184 34.7311H42.0518V36.622H45.5184V34.7311Z" fill="#FB8A5D"/>
<path d="M48.9855 34.7311H47.2522V36.622H48.9855V34.7311Z" fill="#FB8A5D"/>
<path d="M40.3193 38.5115H38.5859V40.4024H40.3193V38.5115Z" fill="#FB8A5D"/>
<path d="M45.5184 38.5115H42.0518V40.4024H45.5184V38.5115Z" fill="#FB8A5D"/>
<path d="M48.9855 38.5115H47.2522V40.4024H48.9855V38.5115Z" fill="#FB8A5D"/>
</g>
<defs>
<clipPath id="clip0_11_649">
<rect width="52" height="52" fill="white" transform="translate(0.75 0.00354004)"/>
</clipPath>
</defs>
</svg>
