<svg width="52" height="52" viewBox="0 0 52 52" fill="none" xmlns="http://www.w3.org/2000/svg">
<path fill-rule="evenodd" clip-rule="evenodd" d="M23.7552 3.54904C23.6381 3.59629 23.3776 3.96008 23.1647 4.37374C22.7046 5.26786 22.5594 5.43923 22.0985 5.63166C21.6897 5.80252 21.1911 5.7052 20.3851 5.29728C19.631 4.91556 19.1593 5.01932 18.9066 5.62249C18.828 5.81018 18.7626 6.18062 18.7614 6.44558C18.7585 7.08401 18.4547 7.72888 18.0373 7.98276C17.7611 8.15071 17.5279 8.18597 16.6905 8.18627C15.3815 8.18677 15.2288 8.27755 15.2288 9.0553C15.2288 9.36056 15.2761 9.69847 15.3338 9.80606C15.4946 10.1059 15.4982 10.9456 15.3397 11.2409C15.1375 11.6179 14.5523 11.9712 13.8823 12.1208C12.7389 12.3761 12.507 13.016 13.1942 14.0202C14.0814 15.3169 13.978 15.9143 12.7176 16.773C12.1183 17.1813 12.0041 17.3326 12.0002 17.7241C11.9952 18.2257 12.0765 18.3381 12.8634 18.9188C14.0167 19.7695 14.0911 20.3482 13.1982 21.5229C12.4912 22.4531 12.7023 23.1541 13.7644 23.4021C14.4996 23.5739 14.8756 23.764 15.17 24.1131C15.4829 24.484 15.5149 25.0704 15.2736 26.0101C15.0816 26.7577 15.1956 27.0886 15.7338 27.3469C16.0267 27.4874 16.1813 27.4991 16.6356 27.4146C16.9371 27.3586 17.3457 27.343 17.5436 27.3801C18.0147 27.4682 18.6627 28.131 18.6627 28.5247C18.6627 29.0852 18.8981 30.0033 19.0987 30.2248C19.3741 30.5291 19.8774 30.5186 20.5765 30.194C21.8395 29.6076 22.4354 29.7909 23.0216 30.9463C23.5163 31.9215 23.6578 32.0634 24.1346 32.0634C24.4721 32.0634 24.6133 31.9819 25.1686 31.4667C26.261 30.4528 26.7922 30.4442 27.8611 31.4227C28.4259 31.9397 28.6254 32.0634 28.8948 32.0634C29.3668 32.0634 29.5254 31.9123 30.0076 31.0027C30.3688 30.3211 30.5015 30.1649 30.8853 29.9696C31.3987 29.7085 31.5222 29.7227 32.516 30.1571C33.7375 30.6912 34.1418 30.4807 34.2446 29.2574C34.3187 28.3758 34.5514 27.8635 35.0187 27.553C35.3303 27.3459 35.4732 27.3236 36.3733 27.3412C37.3539 27.3604 37.3857 27.354 37.6157 27.0872C37.891 26.7678 37.9073 26.5354 37.7014 25.8584C37.32 24.6046 37.6528 23.8154 38.6961 23.4989C39.5983 23.2252 39.7867 23.1475 39.9771 22.9705C40.303 22.6677 40.2224 22.2571 39.67 21.4061C39.1051 20.5361 39.0385 20.1512 39.362 19.6288C39.5496 19.3261 40.1114 18.765 40.227 18.765C40.2567 18.765 40.4388 18.6217 40.6319 18.4465C41.2401 17.8943 41.0993 17.3698 40.1746 16.744C39.7124 16.4312 39.6238 16.3415 39.3745 15.9335C39.0145 15.3445 39.0861 15.0182 39.8109 13.9443C40.4471 13.0015 40.2493 12.4697 39.1647 12.2074C38.4215 12.0278 38.0489 11.8146 37.776 11.413C37.5223 11.0396 37.4697 10.3132 37.6613 9.83034C37.8359 9.39028 37.7793 8.67418 37.552 8.4474C37.3897 8.2854 37.1864 8.24783 36.3457 8.22425C35.2624 8.19393 34.8608 8.06467 34.601 7.6629C34.405 7.35975 34.2159 6.58774 34.2159 6.09035C34.2159 5.15724 33.5309 4.92422 32.3819 5.46643C31.6742 5.80041 31.3127 5.8397 30.9033 5.62722C30.5165 5.42644 30.2399 5.0968 29.9232 4.45908C29.5233 3.65351 29.4078 3.55236 28.8888 3.55236C28.4849 3.55236 28.3895 3.60314 27.9198 4.06848C27.6332 4.35239 27.2141 4.66812 26.9884 4.77008C26.4316 5.02174 25.937 4.86911 25.3321 4.25889C24.5538 3.47378 24.2645 3.34352 23.7552 3.54904ZM24.2679 8.8384C22.3609 9.37507 21.0148 10.1839 19.8007 11.5227C19.0416 12.3596 18.6669 12.9018 18.2368 13.7856C16.766 16.808 16.9905 19.9808 18.8851 22.9459C19.4734 23.8668 20.8585 25.17 21.8188 25.7064C22.0271 25.8227 22.3519 26.0053 22.5407 26.112C23.7732 26.8087 26.1038 27.1753 27.7851 26.9367C30.6849 26.5253 33.3765 24.6724 34.7373 22.1506C35.4301 20.8666 35.8319 19.3176 35.8319 17.9299C35.8318 15.0485 34.6368 12.507 32.4045 10.6405C31.6917 10.0445 30.2142 9.21116 29.4692 8.98478C27.9133 8.51198 25.6537 8.44841 24.2679 8.8384ZM26.4056 10.7126C26.0581 11.928 24.9402 15.3334 24.7873 15.6419L24.6626 15.8937H21.8899C19.4855 15.8937 19.1216 15.9137 19.1505 16.0439C19.1688 16.1265 19.237 16.2268 19.302 16.2668C20.01 16.7027 23.5598 19.3493 23.5465 19.4314C23.524 19.5707 22.5172 22.7444 22.1811 23.7359C22.015 24.2257 21.9075 24.6548 21.9422 24.6894C22.0158 24.7628 21.9317 24.8173 23.5826 23.6267C24.2928 23.1146 25.2533 22.4221 25.717 22.0879L26.5601 21.4803L27.5689 22.2131C28.1238 22.6162 28.7669 23.0775 28.9982 23.2384C29.2295 23.3993 29.7711 23.7959 30.2019 24.1199C30.9454 24.6792 31.1861 24.8046 31.1861 24.633C31.1861 24.5912 31.0678 24.2398 30.9233 23.8523C30.7788 23.4646 30.6268 23.0102 30.5856 22.8426C30.5443 22.6749 30.2732 21.8405 29.9831 20.9884C29.4746 19.4948 29.4622 19.4326 29.6391 19.2633C29.74 19.1667 30.7316 18.4209 31.8425 17.6061C32.9535 16.7913 33.8776 16.084 33.8961 16.0344C33.9155 15.9826 32.7688 15.9441 31.2069 15.9441C29.1369 15.9441 28.4586 15.9136 28.3781 15.8169C28.2717 15.6889 27.9442 14.7345 27.1431 12.2165C26.7126 10.8633 26.4914 10.4124 26.4056 10.7126ZM17.0623 30.2248C16.8221 30.9868 16.5428 31.8594 16.4417 32.1642C16.3405 32.469 16.1562 33.0583 16.032 33.4739C15.9078 33.8895 15.6355 34.7508 15.4268 35.3881C15.2181 36.0253 14.8131 37.2947 14.5268 38.209C13.9717 39.9818 12.9569 43.1872 12.5384 44.4894C12.3987 44.9239 12.3134 45.3082 12.3487 45.3434C12.3841 45.3786 13.5712 44.8228 14.9867 44.1081C17.1957 42.993 17.58 42.8292 17.6981 42.952C17.7737 43.0308 18.1047 43.5938 18.4335 44.2033C18.7623 44.8128 19.1225 45.4702 19.2339 45.6641C19.3452 45.8581 19.6315 46.3794 19.8701 46.8227C20.2999 47.6216 20.5401 47.9601 20.6163 47.8745C20.638 47.8501 20.8451 47.2182 21.0763 46.4701C21.5739 44.8611 22.4435 42.1144 22.7031 41.3321C22.8042 41.0273 22.9879 40.438 23.1113 40.0224C23.2347 39.6068 23.5065 38.7454 23.7154 38.1082C23.9242 37.471 24.2836 36.3376 24.5139 35.5896C24.7443 34.8415 24.9764 34.1253 25.0296 33.9981C25.2118 33.5622 25.1578 33.4425 24.8102 33.5118C24.2169 33.6301 23.2555 33.2137 22.806 32.6436C22.692 32.499 22.4629 32.1078 22.297 31.7742L21.9953 31.1676L21.4147 31.4765C20.625 31.8966 19.6338 31.9337 18.9923 31.5672C18.2869 31.1641 17.9171 30.51 17.7972 29.4534C17.7577 29.1048 17.6783 28.8396 17.6133 28.8396C17.5505 28.8396 17.3026 29.463 17.0623 30.2248ZM35.6547 30.7499C35.5296 30.9686 35.2114 31.297 34.9477 31.4795C34.5132 31.7806 34.4024 31.811 33.7615 31.8046C33.1975 31.7992 32.9451 31.7418 32.5141 31.5207C32.2168 31.3684 31.9175 31.2652 31.8488 31.2915C31.7802 31.3178 31.6048 31.5825 31.459 31.8798C31.1632 32.4826 30.6988 33.0018 30.2328 33.2502C29.7663 33.499 28.8131 33.4673 28.2727 33.1853C27.7678 32.9217 27.6818 32.9529 27.8337 33.3447C27.9214 33.5711 28.6198 35.7733 29.0727 37.2519C29.2194 37.7308 30.1808 40.7515 30.2751 41.0298C30.3221 41.1684 30.551 41.8937 30.7839 42.6418C31.0169 43.3898 31.2884 44.2512 31.3873 44.5559C31.4862 44.8607 31.7631 45.7221 32.0024 46.4701C32.2419 47.2182 32.4712 47.8703 32.5121 47.9192C32.5531 47.9682 32.8013 47.6735 33.0637 47.2644C34.5702 44.9153 35.3663 43.6894 35.4353 43.6115C35.5023 43.5361 36.66 43.8738 37.2963 44.1545C37.4074 44.2034 37.7028 44.3103 37.9528 44.3919C38.2027 44.4735 38.8163 44.6973 39.3162 44.8891C39.8161 45.081 40.3275 45.2689 40.4524 45.3067C40.834 45.4223 40.9083 45.7144 39.1745 40.2742C38.9097 39.4431 38.6325 38.559 38.5584 38.3097C38.4845 38.0603 38.2543 37.335 38.047 36.6978C37.8396 36.0605 37.5678 35.1992 37.4428 34.7836C37.3179 34.368 37.085 33.62 36.9252 33.1213C36.7656 32.6226 36.5409 31.9199 36.426 31.5597C36.1297 30.6304 36.0185 30.3507 35.9459 30.3516C35.9109 30.352 35.7799 30.5312 35.6547 30.7499Z" fill="#FB8A5D"/>
</svg>