<svg width="53" height="53" viewBox="0 0 53 53" fill="none" xmlns="http://www.w3.org/2000/svg">
<g clip-path="url(#clip0_11_616)">
<path d="M51.8005 18.7175C50.6708 18.1328 48.9685 18.3161 47.9002 20.1006C47.8972 20.1057 47.8941 20.1107 47.8912 20.1159L43.9446 26.9768C42.8045 26.3902 41.3668 26.6793 40.549 27.7291C40.2665 28.0918 39.3331 29.3345 38.3452 30.6501C37.8036 31.3712 37.2622 32.0922 36.844 32.6465C36.5063 33.0943 36.5954 33.7312 37.0431 34.0689C37.491 34.4069 38.1276 34.3176 38.4653 33.8698C38.8841 33.3146 39.4266 32.5924 39.9691 31.8701C40.9084 30.6194 41.8796 29.3261 42.1512 28.9775C42.3829 28.6799 42.8278 28.6222 43.1229 28.8518C43.342 29.0222 43.3303 29.4394 43.0881 30.0917C42.2262 32.4135 41.1552 34.7337 40.1497 36.4574C39.8671 36.9419 40.0306 37.5638 40.5151 37.8464C40.9997 38.1291 41.6214 37.9655 41.9039 37.481C42.9657 35.6608 44.0912 33.2252 44.9921 30.7987C45.3045 29.9568 45.3613 29.283 45.2701 28.7457L49.6468 21.1372C50.0005 20.5506 50.4676 20.3147 50.8672 20.5215C51.1416 20.6634 51.374 21.0285 51.128 21.59C50.8317 22.2447 50.1939 23.8649 49.387 25.9147C48.319 28.6278 46.9901 32.0043 45.8668 34.6317C44.4985 37.8325 43.9716 38.6056 41.529 40.995L37.6365 44.803C37.3796 45.0543 37.2746 45.4229 37.3605 45.772L38.7166 51.2786C38.7183 51.2852 38.7199 51.2919 38.7217 51.2986C38.744 51.3817 38.6965 51.4516 38.6717 51.4712H30.7346C29.9806 51.4712 29.8187 51.2562 29.6502 50.7998C27.6581 45.4036 29.7129 42.3065 31.7256 40.211C32.1141 39.8065 32.1011 39.1636 31.6967 38.775C31.2923 38.3864 30.6495 38.3992 30.2609 38.8039C28.7779 40.3479 27.7966 41.9246 27.2692 43.6118C27.0528 42.924 26.7614 42.2535 26.3936 41.5988C25.0133 39.1409 22.7697 37.34 20.9669 35.893C19.9186 35.0515 18.9283 34.2568 18.3705 33.5406C18.0992 33.1922 17.1287 31.8999 16.1902 30.6503C15.2021 29.3346 14.2688 28.0919 13.9863 27.7292C13.1685 26.6794 11.7309 26.3902 10.5907 26.9769L6.64401 20.1159C6.64107 20.1107 6.63802 20.1057 6.63498 20.1006C5.56663 18.3161 3.86425 18.1328 2.73457 18.7175C1.59596 19.307 0.82382 20.766 1.55098 22.4142C1.5524 22.4173 1.55382 22.4205 1.55524 22.4236C1.75092 22.8551 2.1443 23.8391 2.46518 24.648C2.67202 25.1695 3.2625 25.4245 3.78352 25.2176C4.30485 25.0107 4.55982 24.4203 4.35298 23.899C3.85968 22.6552 3.57647 21.9637 3.4073 21.5901C3.16146 21.0286 3.3938 20.6635 3.66817 20.5216C4.06795 20.3148 4.53495 20.5508 4.88873 21.1374L9.26527 28.7458C9.17408 29.2831 9.23085 29.9569 9.5434 30.7988C10.4441 33.2252 11.5697 35.6608 12.6315 37.481C12.9142 37.9655 13.5359 38.1291 14.0203 37.8464C14.5046 37.5638 14.6682 36.9418 14.3856 36.4574C13.3801 34.7336 12.309 32.4134 11.4471 30.0917C11.205 29.4394 11.1933 29.0223 11.4126 28.8517C11.7074 28.6226 12.1525 28.68 12.3841 28.9775C12.6556 29.3261 13.627 30.6194 14.5663 31.8702C15.5536 33.1847 16.4861 34.4263 16.7684 34.7888C17.4721 35.6923 18.5522 36.5593 19.6958 37.4772C23.3504 40.4105 27.4928 43.7353 24.885 50.7996C24.7164 51.2561 24.5545 51.4711 23.8006 51.4711H15.8635C15.8387 51.4516 15.7912 51.3816 15.8134 51.2985C15.8153 51.2919 15.817 51.2852 15.8186 51.2785L17.1746 45.7719C17.2606 45.4228 17.1556 45.0543 16.8986 44.8029L13.0061 40.9949C10.5637 38.6055 10.0367 37.8324 8.66839 34.6315C8.38722 33.9739 8.07132 33.2173 7.72911 32.3827C7.51638 31.8637 6.92326 31.6153 6.40437 31.8282C5.88548 32.041 5.63731 32.6342 5.85004 33.1532C6.20088 34.0091 6.51201 34.7538 6.801 35.43C8.27664 38.882 8.94744 39.8657 11.5862 42.4469L15.0639 45.8493L13.8487 50.7841C13.6773 51.4387 13.8208 52.1493 14.2338 52.6878C14.6309 53.2054 15.2198 53.5022 15.8496 53.5022H23.8005C25.3155 53.5022 26.2934 52.8484 26.79 51.5031C26.9779 50.9942 27.1367 50.495 27.2685 50.0041C27.3994 50.497 27.5581 50.9968 27.745 51.5031C28.2416 52.8484 29.2196 53.5022 30.7345 53.5022H38.6854C39.3152 53.5022 39.9041 53.2054 40.3013 52.6878C40.7141 52.1495 40.8578 51.439 40.6865 50.7845L39.4711 45.8494L42.9489 42.447C45.5875 39.8657 46.2584 38.882 47.7341 35.4301C48.8687 32.7757 50.2037 29.384 51.2765 26.6587C52.0436 24.7102 52.7059 23.0274 52.9798 22.4233C52.9813 22.4202 52.9826 22.417 52.984 22.4139C53.7115 20.766 52.9392 19.307 51.8005 18.7175Z" fill="#FB8A5D"/>
<path d="M6.1015 28.5248C6.1015 27.9639 5.64688 27.5092 5.08606 27.5092H5.08535C4.52452 27.5092 4.07031 27.9639 4.07031 28.5248C4.07031 29.0858 4.52523 29.5405 5.08606 29.5405C5.64688 29.5405 6.1015 29.0857 6.1015 28.5248Z" fill="#FB8A5D"/>
<path d="M34.4323 35.484C33.8715 35.484 33.4172 35.9387 33.4172 36.4996C33.4172 37.0606 33.8722 37.5153 34.433 37.5153C34.9938 37.5153 35.4484 37.0606 35.4484 36.4996C35.4484 35.9387 34.9937 35.484 34.433 35.484H34.4323Z" fill="#FB8A5D"/>
<path d="M11.0227 18.3318H20.2818C20.203 18.7571 20.1616 19.1937 20.1616 19.6379V21.3789C20.1616 21.9398 20.6162 22.3945 21.177 22.3945H33.3623C33.923 22.3945 34.3777 21.9398 34.3777 21.3789V19.6379C34.3777 19.1938 34.3362 18.7572 34.2574 18.3318H43.5167C44.0774 18.3318 44.5321 17.8771 44.5321 17.3161V15.5751C44.5321 13.2084 43.3755 11.0464 41.4574 9.72655C41.7536 9.12713 41.9209 8.45305 41.9209 7.74039V5.9994C41.9209 3.51934 39.9037 1.50159 37.4241 1.50159C34.9444 1.50159 32.9271 3.51923 32.9271 5.9994V7.74049C32.9271 8.45427 33.0949 9.12936 33.392 9.7295C32.7674 10.163 32.2198 10.6909 31.7666 11.2883V10.062C31.7666 7.58195 29.7494 5.5642 27.2697 5.5642C24.79 5.5642 22.7727 7.58185 22.7727 10.062V11.2885C22.3195 10.691 21.7719 10.163 21.1472 9.7295C21.4443 9.12936 21.6121 8.45438 21.6121 7.74049V5.9994C21.6121 3.51934 19.5949 1.50159 17.1152 1.50159C14.6355 1.50159 12.6182 3.51923 12.6182 5.9994V7.74049C12.6182 8.45316 12.7855 9.12723 13.0817 9.72665C11.1635 11.0463 10.0071 13.2076 10.0071 15.5753V17.3162C10.0073 17.8771 10.4619 18.3318 11.0227 18.3318ZM32.3469 20.3632H22.1925V19.6379C22.1925 17.9196 23.0956 16.2991 24.5328 15.3685C25.2916 15.9525 26.2404 16.3008 27.2697 16.3008C28.2994 16.3008 29.2489 15.952 30.0077 15.3675C30.227 15.5081 30.433 15.6641 30.6253 15.8329C30.6571 15.8652 30.6905 15.8958 30.7263 15.9236C31.2503 16.4089 31.6625 16.9952 31.9401 17.6449C31.9539 17.6852 31.9702 17.7242 31.9888 17.7621C32.2218 18.3477 32.3468 18.9818 32.3468 19.6378V20.3632H32.3469ZM42.5013 15.5753V16.3006H33.5484C33.2461 15.733 32.8669 15.2076 32.4193 14.7393C32.6564 13.3365 33.4861 12.0835 34.6887 11.307C35.4471 11.8902 36.3955 12.2382 37.4241 12.2382C38.4538 12.2382 39.4031 11.8894 40.1621 11.3048C41.6175 12.2383 42.5013 13.8292 42.5013 15.5753ZM34.9579 5.9994C34.9579 4.63937 36.0642 3.53284 37.424 3.53284C38.7837 3.53284 39.8899 4.63937 39.8899 5.9994V7.74049C39.8899 9.10052 38.7836 10.207 37.424 10.207C36.0641 10.207 34.9579 9.10052 34.9579 7.74049V5.9994ZM24.8036 10.062C24.8036 8.70199 25.9099 7.59546 27.2697 7.59546C28.6294 7.59546 29.7358 8.70199 29.7358 10.062V11.8031C29.7358 13.1631 28.6294 14.2697 27.2697 14.2697C25.9099 14.2697 24.8036 13.1631 24.8036 11.8031V10.062ZM14.6493 5.9994C14.6493 4.63937 15.7556 3.53284 17.1154 3.53284C18.4751 3.53284 19.5815 4.63937 19.5815 5.9994V7.74049C19.5815 9.10052 18.4751 10.207 17.1154 10.207C15.7556 10.207 14.6493 9.10052 14.6493 7.74049V5.9994ZM12.0382 15.5753C12.0382 13.8286 12.9218 12.2382 14.3773 11.3049C15.1363 11.8895 16.0856 12.2383 17.1154 12.2383C18.1439 12.2383 19.0922 11.8903 19.8508 11.3071C21.053 12.0835 21.8829 13.3366 22.1202 14.739C21.6724 15.2074 21.2929 15.7329 20.9906 16.3007H12.0383V15.5753H12.0382Z" fill="#FB8A5D"/>
</g>
<defs>
<clipPath id="clip0_11_616">
<rect width="52" height="52" fill="white" transform="translate(0.75 0.00354004)"/>
</clipPath>
</defs>
</svg>
