<svg width="65" height="64" viewBox="0 0 65 64" fill="none" xmlns="http://www.w3.org/2000/svg">
<path fill-rule="evenodd" clip-rule="evenodd" d="M20.3723 6.11423C18.695 6.38653 17.1072 7.2172 15.8388 8.4856C14.3046 10.0198 13.6299 11.5723 13.4875 13.8953C13.3376 16.3425 13.8411 18.0121 15.329 20.0016C15.9372 20.8147 16.435 21.5418 16.435 21.6171C16.435 22.0849 15.5067 22.8953 14.2556 23.5197C12.1015 24.5946 9.44577 27.3489 8.34956 29.645C6.8917 32.6993 6.57685 34.1161 6.56209 37.6891L6.54907 40.8738L7.36698 41.6935L8.18488 42.5132L16.7786 42.585L25.3721 42.6568L25.5108 40.7079C25.8351 36.1499 28.8579 30.9451 32.6914 28.3445C33.3789 27.8783 33.9443 27.4248 33.9478 27.3372C33.9663 26.8819 30.9926 24.3634 29.4003 23.4857C27.2239 22.2861 26.9804 21.6794 28.1321 20.3262C29.834 18.3265 30.5896 16.1255 30.3774 13.7854C29.9291 8.84224 25.3225 5.31034 20.3723 6.11423ZM39.2089 27.8412C31.0489 30.0449 26.1194 38.3904 28.1917 46.4935C28.87 49.1452 30.0212 51.1997 31.9909 53.2733C33.8998 55.2827 35.6329 56.41 38.2503 57.3445C39.8431 57.9132 40.4838 58 43.0894 58C45.695 58 46.3357 57.9132 47.9285 57.3445C50.5459 56.41 52.2791 55.2827 54.1879 53.2733C56.1576 51.1997 57.3089 49.1452 57.9871 46.4935C60.0792 38.3133 54.8777 29.6857 46.6899 27.7556C44.568 27.2553 41.2369 27.2936 39.2089 27.8412ZM36.8468 36.9378C36.0506 38.0743 36.6548 39.8853 37.8299 39.8853C38.6991 39.8853 39.2101 39.2365 39.2101 38.1333C39.2101 37.5895 39.0384 36.9963 38.8169 36.7746C38.2523 36.2102 37.301 36.2888 36.8468 36.9378ZM47.6332 36.8391C47.4054 37.0909 47.219 37.6928 47.219 38.1769C47.219 39.7196 48.7769 40.4789 49.5823 39.3289C50.7431 37.6718 48.9511 35.3828 47.6332 36.8391ZM37.068 43.9948C36.7001 44.2638 36.5925 44.618 36.624 45.4549C36.6796 46.9198 37.2052 48.1131 38.3554 49.3862C42.0217 53.4447 48.6072 51.6352 49.7227 46.263C49.9209 45.3077 49.9252 44.7704 49.7372 44.4193C49.08 43.1912 47.219 43.736 47.219 45.1568C47.219 46.2605 46.358 47.7665 45.3827 48.3694C44.2387 49.0764 42.2024 49.0839 41.0719 48.3851C40.1719 47.829 39.2101 46.1194 39.2101 45.0762C39.2101 44.6803 38.9886 44.2636 38.6538 44.0291C37.9668 43.5478 37.6874 43.5418 37.068 43.9948Z" fill="#FB8A5D"/>
</svg>