<svg width="60" height="56" viewBox="0 0 60 56" fill="none" xmlns="http://www.w3.org/2000/svg">
<path d="M24.9292 14.8984V15.6341C24.9292 22.1501 20.8305 27.5099 15.7859 27.5099C10.7413 27.5099 6.64258 22.15 6.64258 15.6341C6.64258 15.424 6.64258 15.2138 6.64258 14.8984" stroke="white" stroke-width="2" stroke-miterlimit="10"/>
<path d="M4.84631 10.1227C5.45594 1.2826 12.1622 1.18099 15.5154 1.68902C15.8202 1.79062 16.7348 1.68902 17.0396 1.68902C23.1363 0.876175 26.1845 7.78567 26.1845 10.8339C26.1845 11.9517 26.4423 14.6804 24.9181 16.2046C24.9181 16.2046 21.2055 11.9517 21.0023 9.51296C21.0023 9.51296 9.41866 13.8822 8.60582 10.1226C8.60582 10.1226 7.79298 13.1709 7.08162 13.9838C7.08162 13.9838 6.70583 16.3208 6.70583 17.0321C6.70606 17.0323 4.5415 13.9839 4.84631 10.1227V10.1227Z" stroke="white" stroke-width="2" stroke-linecap="round" stroke-linejoin="round"/>
<path d="M14.3573 15.9628C14.3573 16.7791 13.745 17.3914 12.9286 17.3914C12.1123 17.3914 11.5 16.7791 11.5 15.9628C11.5 15.1464 12.1123 14.5341 12.9286 14.5341C13.745 14.5341 14.3573 15.1464 14.3573 15.9628Z" fill="white"/>
<path d="M20.0721 15.9628C20.0721 16.7791 19.4599 17.3914 18.6435 17.3914C17.8271 17.3914 17.2148 16.7791 17.2148 15.9628C17.2148 15.1464 17.8271 14.5341 18.6435 14.5341C19.4599 14.5341 20.0721 15.1464 20.0721 15.9628Z" fill="white"/>
<path d="M13.6523 21.7152C14.9733 22.4264 16.599 22.4264 17.92 21.7152" stroke="white" stroke-width="2" stroke-linecap="round" stroke-linejoin="round"/>
<path d="M46.2603 41.8904C47.1459 42.6247 48.4288 42.6247 49.3145 41.8904" stroke="white" stroke-width="2" stroke-linecap="round" stroke-linejoin="round"/>
<path d="M15.2144 54.4789V52.4979C15.2144 49.6787 18.0737 47.3928 20.933 47.3928C24.3333 50.2121 27.7336 50.2121 31.2112 47.3928C34.0704 47.3928 36.9297 49.6787 36.9297 52.4979V54.4789" stroke="white" stroke-width="2" stroke-linecap="round" stroke-linejoin="round"/>
<path d="M36.9307 54.4789V52.4979C36.9307 49.6787 39.79 47.3928 42.6494 47.3928C46.0496 50.2121 49.4499 50.2121 52.9275 47.3928C55.7868 47.3928 58.6462 49.6787 58.6462 52.4979V54.4789" stroke="white" stroke-width="2" stroke-linecap="round" stroke-linejoin="round"/>
<path d="M29.2698 37.9084C29.3078 38.475 28.8792 38.9652 28.3123 39.0033C27.7456 39.0413 27.2553 38.6127 27.2172 38.0461C27.1791 37.4794 27.6077 36.9892 28.1746 36.9512C28.1976 36.9496 28.2206 36.9489 28.2436 36.9489C28.7918 36.9312 29.2509 37.3605 29.2698 37.9084Z" fill="white"/>
<path d="M24.5454 41.8904C25.4311 42.6247 26.714 42.6247 27.5996 41.8904" stroke="white" stroke-width="2" stroke-linecap="round" stroke-linejoin="round"/>
<path d="M23.901 36.9489C23.924 36.9489 23.9471 36.9497 23.9701 36.9512C24.5368 36.9892 24.9655 37.4794 24.9275 38.0461C24.8894 38.6127 24.3991 39.0412 23.8323 39.0033C23.2656 38.9652 22.8368 38.475 22.8749 37.9084C22.8938 37.3605 23.3529 36.9312 23.901 36.9489Z" fill="white"/>
<path d="M50.9856 37.9084C51.0236 38.475 50.595 38.9652 50.0282 39.0033C49.4614 39.0413 48.9711 38.6127 48.933 38.0461C48.895 37.4794 49.3235 36.9892 49.8904 36.9512C49.9134 36.9496 49.9364 36.9489 49.9595 36.9489C50.5075 36.9312 50.9666 37.3605 50.9856 37.9084Z" fill="white"/>
<path d="M45.6164 36.9489C45.6393 36.9489 45.6624 36.9497 45.6854 36.9512C46.2522 36.9892 46.6809 37.4794 46.6428 38.0461C46.6047 38.6127 46.1144 39.0412 45.5477 39.0033C44.9809 38.9652 44.5522 38.475 44.5902 37.9084C44.609 37.3605 45.0681 36.9312 45.6164 36.9489Z" fill="white"/>
<path d="M33.5575 37.4132C33.5664 37.5744 33.5709 37.7367 33.571 37.9002C33.7352 42.1645 30.4188 45.7581 26.1551 45.936C21.8913 45.7581 18.575 42.1645 18.7392 37.9002C18.7392 37.7914 18.7412 37.6832 18.7452 37.5755" stroke="white" stroke-width="2" stroke-miterlimit="10"/>
<path d="M23.3696 33.9882C23.9061 37.8319 28.4979 32.9932 28.4979 32.9932C29.1254 34.7918 33.5557 37.4133 33.5557 37.4133C34.7357 36.321 34.1568 34.1531 33.981 33.3975C33.3974 30.2971 30.4615 28.2173 27.3431 28.6951C26.9504 28.7266 26.5558 28.7266 26.1631 28.6951C23.5677 28.3101 19.2713 28.5256 18.0256 34.002C17.4179 36.6744 18.7387 37.4129 18.7387 37.4129C18.7387 37.4129 23.0407 31.6311 23.3696 33.9882V33.9882Z" stroke="white" stroke-width="2" stroke-linecap="round" stroke-linejoin="round"/>
<path d="M55.1974 37.5755C55.2014 37.6832 55.2033 37.7914 55.2033 37.9002C55.3675 42.1645 52.0513 45.7581 47.7875 45.936C43.5237 45.7581 40.2073 42.1645 40.3716 37.9002C40.3717 37.7367 40.3761 37.5744 40.3851 37.4132" stroke="white" stroke-width="2" stroke-miterlimit="10"/>
<path d="M55.2042 37.4129C55.2042 37.4129 56.525 36.6744 55.9173 34.002C54.6716 28.5256 50.3752 28.3101 47.7798 28.6951C47.3871 28.7266 46.9925 28.7266 46.5998 28.6951C43.4814 28.2173 40.5455 30.2971 39.9619 33.3975C39.7861 34.1531 39.2072 36.321 40.3872 37.4133C40.3872 37.4133 44.8175 34.7918 45.445 32.9932C45.445 32.9932 50.0368 37.8319 50.5733 33.9882C50.9022 31.6311 55.2042 37.4129 55.2042 37.4129V37.4129Z" stroke="white" stroke-width="2" stroke-linecap="round" stroke-linejoin="round"/>
<path d="M1.5 54.2502V37.0553C1.5 33.2956 5.26225 30.2474 9.0245 30.2474C10.729 31.6797 12.4335 32.5664 14.1435 32.9073" stroke="white" stroke-width="2" stroke-miterlimit="10" stroke-linecap="round" stroke-linejoin="round"/>
</svg>
