<svg width="52" height="47" viewBox="0 0 52 47" fill="none" xmlns="http://www.w3.org/2000/svg">
<path fill-rule="evenodd" clip-rule="evenodd" d="M28.6 35.1999H33.15C42.1247 35.1999 49.4 27.9245 49.4 18.9499C49.4 9.97517 42.1247 2.69985 33.15 2.69985H18.85C9.87532 2.69985 2.6 9.97517 2.6 18.9499C2.6 29.2387 9.38171 35.5297 16.8011 39.3939C20.486 41.3131 24.1977 42.5534 27.0046 43.3137C27.5794 43.4693 28.1138 43.6042 28.6 43.7203V35.1999ZM31.2 46.8999C31.2 46.8999 30.2171 46.7565 28.6 46.3899C21.1071 44.6908 0 38.1964 0 18.9499C0 8.53932 8.43947 0.0998535 18.85 0.0998535H33.15C43.5605 0.0998535 52 8.53932 52 18.9499C52 29.3604 43.5605 37.7999 33.15 37.7999H31.2V46.8999Z" fill="#00194B"/>
<path fill-rule="evenodd" clip-rule="evenodd" d="M26.0001 20.9001C26.7181 20.9001 27.3001 20.3181 27.3001 19.6001C27.3001 18.8821 26.7181 18.3001 26.0001 18.3001C25.2821 18.3001 24.7001 18.8821 24.7001 19.6001C24.7001 20.3181 25.2821 20.9001 26.0001 20.9001ZM26.0001 23.5001C28.1541 23.5001 29.9001 21.7541 29.9001 19.6001C29.9001 17.4461 28.1541 15.7001 26.0001 15.7001C23.8461 15.7001 22.1001 17.4461 22.1001 19.6001C22.1001 21.7541 23.8461 23.5001 26.0001 23.5001Z" fill="#00194B"/>
<path fill-rule="evenodd" clip-rule="evenodd" d="M36.3998 20.9001C37.1177 20.9001 37.6998 20.3181 37.6998 19.6001C37.6998 18.8821 37.1177 18.3001 36.3998 18.3001C35.6818 18.3001 35.0998 18.8821 35.0998 19.6001C35.0998 20.3181 35.6818 20.9001 36.3998 20.9001ZM36.3998 23.5001C38.5537 23.5001 40.2998 21.7541 40.2998 19.6001C40.2998 17.4461 38.5537 15.7001 36.3998 15.7001C34.2458 15.7001 32.4998 17.4461 32.4998 19.6001C32.4998 21.7541 34.2458 23.5001 36.3998 23.5001Z" fill="#00194B"/>
<path fill-rule="evenodd" clip-rule="evenodd" d="M15.6 20.9001C16.3179 20.9001 16.9 20.3181 16.9 19.6001C16.9 18.8821 16.3179 18.3001 15.6 18.3001C14.882 18.3001 14.3 18.8821 14.3 19.6001C14.3 20.3181 14.882 20.9001 15.6 20.9001ZM15.6 23.5001C17.7539 23.5001 19.5 21.7541 19.5 19.6001C19.5 17.4461 17.7539 15.7001 15.6 15.7001C13.446 15.7001 11.7 17.4461 11.7 19.6001C11.7 21.7541 13.446 23.5001 15.6 23.5001Z" fill="#00194B"/>
</svg>
