<svg width="45" height="46" viewBox="0 0 45 46" fill="none" xmlns="http://www.w3.org/2000/svg">
<path d="M38.558 14.7043C38.5707 16.0395 38.5735 17.3761 38.5523 18.7113C38.541 19.3746 38.2617 19.9701 37.5027 19.9164C36.786 19.8669 36.5165 19.3209 36.5589 18.6165C36.58 18.2757 36.5631 17.9319 36.5631 17.4298C30.6561 23.3506 24.8945 29.1228 19.1343 34.8964C19.0256 34.8399 18.917 34.7833 18.807 34.7281V26.9304C18.2906 27.4269 18.0197 27.6758 17.7616 27.9375C16.3861 29.3236 15.0303 30.731 13.6364 32.0973C12.1918 33.5131 11.0843 33.2628 10.2125 31.3675C6.65728 23.6391 11.4384 14.5006 19.8143 13.0169C23.6544 12.3365 28.0476 13.5077 30.4276 15.9235C29.6954 16.5642 28.9604 17.2064 28.2084 17.8655C22.9194 14.2021 17.6191 16.0805 14.7636 19.0833C12.4937 21.4694 11.3566 26.1058 12.6898 28.4C14.1274 26.9135 15.5212 25.4665 16.9222 24.0238C17.4907 23.4383 18.0705 22.864 18.649 22.2869C19.3007 21.6363 20.0499 21.3025 20.9584 21.6872C21.8402 22.0606 22.0631 22.8103 22.0475 23.6943C22.0306 24.6674 22.0433 25.6405 22.0433 26.6136C22.1872 26.6759 22.3325 26.7381 22.4764 26.8017C26.2982 22.9206 30.1201 19.0394 33.9419 15.1569C33.901 15.0451 33.8586 14.9334 33.8177 14.8202C33.3691 14.8202 32.8711 14.9433 32.4845 14.7863C32.0937 14.6265 31.5153 14.1441 31.5548 13.8881C31.6155 13.4992 32.1234 12.9065 32.4718 12.8853C33.7853 12.8047 35.1058 12.8089 36.4263 12.8287C36.4164 12.8217 36.4079 12.8146 36.398 12.8061C35.3146 11.9617 34.6106 10.9334 33.9659 9.77361C30.8297 4.14424 26.0401 1.06931 19.6421 0.357856C14.0963 -0.258828 8.54068 0.161253 2.99206 0.00283863C0.771479 -0.06081 -0.0354901 0.944838 0.00119031 3.12728C0.0900698 8.18947 0.029406 13.2545 0.029406 18.3181C0.0251737 22.6731 0.0251737 27.028 0.0251737 31.383C0.0251737 34.7965 1.7548 36.5074 5.21404 36.5159C8.20115 36.5225 9.70928 38.0223 9.73843 41.0152C9.74266 41.4197 9.7737 41.8271 9.74407 42.2302C9.58748 44.3574 10.671 45.0986 12.67 45.0731C14.4998 45.0505 16.3296 45.0646 18.1594 45.0788C18.0423 44.8567 17.9788 44.5993 17.9774 44.315C17.9732 43.4536 18.5544 42.8596 19.549 42.8072C20.4294 42.7606 21.3153 42.7973 22.1985 42.7973C22.1985 42.8072 22.1985 42.8171 22.1985 42.827C23.0464 42.827 23.8957 42.8058 24.7435 42.8327C25.6648 42.8624 26.1797 43.3871 26.2503 44.2924C26.27 44.5512 26.2206 44.7973 26.1148 45.0151C26.1783 45.0123 26.2418 45.0123 26.3067 45.0095C34.2932 44.6912 41.0494 39.6573 43.3349 32.5669C45.4059 26.1426 43.6805 19.7509 38.5594 14.7057L38.558 14.7043ZM26.5719 40.9713C25.0835 40.9897 23.5938 40.9756 22.1054 40.9756V40.9628C20.617 40.9628 19.1272 40.9713 17.6374 40.96C16.5525 40.9515 15.9092 40.4155 15.888 39.5315C15.8627 38.5541 16.4651 37.9841 17.605 37.9784C20.5831 37.9629 23.5613 37.96 26.5395 37.9714C27.6582 37.9756 28.3481 38.5626 28.3636 39.4537C28.3791 40.349 27.6864 40.9572 26.5733 40.9713H26.5719ZM31.0441 35.441C30.3627 35.9855 29.6742 35.9827 29.0352 35.4C28.3693 34.7932 28.389 33.9785 28.9688 33.2076C29.7321 32.1935 30.6731 31.2345 31.133 30.0888C31.686 28.7055 31.9865 27.161 32.0669 25.6688C32.122 24.6476 32.3773 23.9375 33.0996 23.2742C33.5356 22.8725 33.8459 22.3322 34.2127 21.8555C36.1935 26.2869 34.5217 32.6617 31.0455 35.441H31.0441Z" fill="#FB8A5D"/>
</svg>
