<svg width="53" height="53" viewBox="0 0 53 53" fill="none" xmlns="http://www.w3.org/2000/svg">
<g clip-path="url(#clip0_11_731)">
<path d="M41.8501 28.6035C41.8501 27.1302 40.2901 26.0035 38.3834 26.0035C36.4767 26.0035 34.9167 27.1302 34.9167 28.6035V31.2035L30.6701 29.3835C31.7101 28.4302 32.4034 27.2169 32.8367 25.9169L35.1767 24.7035C36.0434 24.2702 36.6501 23.4035 36.6501 22.3635V20.8035C36.6501 19.3302 35.5234 18.2035 34.0501 18.2035H33.7034L33.1834 18.7235V16.4702H34.9167V13.8702C34.9167 8.49687 31.3634 3.73021 26.2501 2.25687C26.0767 0.956873 24.9501 0.00354004 23.6501 0.00354004H21.9167C20.6167 0.00354004 19.4901 0.956873 19.3167 2.25687C14.2034 3.73021 10.6501 8.49687 10.6501 13.8702V16.4702H12.3834V18.7235L11.8634 18.2035H11.5167C10.0434 18.2035 8.91673 19.3302 8.91673 20.8035V22.3635C8.91673 23.3169 9.43673 24.2702 10.3901 24.7035L12.7301 25.9169C13.1634 27.2169 13.8567 28.4302 14.8967 29.3835L7.7034 32.5035C4.23673 34.0635 1.9834 37.4435 1.9834 41.2569V52.0035H45.3167V26.7835L41.8501 31.6369V28.6035ZM36.6501 38.8302V30.8569C37.7767 31.2902 38.9901 31.2902 40.1167 30.8569V33.9769L36.6501 38.8302ZM38.3834 27.7369C39.4234 27.7369 40.1167 28.2569 40.1167 28.6035C40.1167 28.9502 39.4234 29.4702 38.3834 29.4702C37.3434 29.4702 36.6501 28.9502 36.6501 28.6035C36.6501 28.2569 37.3434 27.7369 38.3834 27.7369ZM34.9167 35.2769L29.2834 39.4369C28.8501 39.6969 28.2434 39.8702 27.7234 39.8702H24.7767L25.0367 38.8302C25.1234 38.4835 25.4701 38.1369 25.9034 38.1369H27.1167C28.5034 38.1369 29.8034 37.4435 30.6701 36.3169L33.4434 32.4169L35.0034 33.1102V35.2769H34.9167ZM23.3901 38.3969L22.7834 40.6502L22.1767 38.3969C21.9167 37.1835 20.8767 36.4035 19.6634 36.4035H18.4501C17.5834 36.4035 16.8034 35.9702 16.3701 35.2769L13.7701 31.6369L16.4567 30.4235L18.9701 31.8102C21.3101 33.1102 24.0834 33.1102 26.4234 31.8102L28.9367 30.4235L31.6234 31.6369L29.0234 35.2769C28.5034 35.9702 27.7234 36.4035 26.9434 36.4035H25.7301C24.6901 36.4035 23.6501 37.1835 23.3901 38.3969ZM20.7901 39.8702H17.8434C17.3234 39.8702 16.7167 39.6969 16.2834 39.3502L8.7434 33.8902L12.1234 32.4169L14.8967 36.3169C15.6767 37.4435 17.0634 38.1369 18.4501 38.1369H19.6634C20.0967 38.1369 20.4434 38.3969 20.5301 38.8302L20.7901 39.8702ZM34.3967 20.0235C34.7434 20.1102 34.9167 20.4569 34.9167 20.8035V22.3635C34.9167 22.7102 34.7434 22.9702 34.3967 23.1435L33.1834 23.7502V23.6635V21.2369L34.3967 20.0235ZM12.5567 14.7369C12.9034 13.6969 13.8567 13.0035 14.9834 13.0035H30.5834C31.7101 13.0035 32.6634 13.6969 33.0101 14.7369H12.5567ZM19.3167 4.07687V9.53687H21.0501V2.60354C21.0501 2.08354 21.3967 1.73687 21.9167 1.73687H23.6501C24.1701 1.73687 24.5167 2.08354 24.5167 2.60354V9.53687H26.2501V4.07687C29.8034 5.29021 32.4034 8.32354 33.0101 12.0502C32.3167 11.5302 31.4501 11.2702 30.5834 11.2702H14.9834C14.1167 11.2702 13.2501 11.5302 12.5567 12.0502C13.1634 8.32354 15.7634 5.29021 19.3167 4.07687ZM11.1701 23.1435C10.9101 22.9702 10.6501 22.7102 10.6501 22.3635V20.8035C10.6501 20.4569 10.9101 20.1102 11.1701 20.0235L12.3834 21.2369V23.6635V23.7502L11.1701 23.1435ZM14.1167 23.6635V16.4702H31.4501V23.6635C31.4501 25.9169 30.2367 27.9102 28.3301 28.9502L25.7301 30.3369C23.9101 31.2902 21.7434 31.2902 19.9234 30.3369L17.3234 28.9502C15.3301 27.9102 14.1167 25.8302 14.1167 23.6635ZM3.71673 41.1702C3.71673 38.5702 5.01673 36.2302 7.09673 34.7569L15.3301 40.7369C16.1101 41.2569 16.9767 41.6035 17.8434 41.6035H21.9167V50.2702H19.3167V43.3369H13.0767L12.3834 40.5635L10.6501 40.9102L11.2567 43.3369H9.7834V50.2702H3.71673V41.1702ZM17.5834 45.0702V46.8035H11.5167V45.0702H17.5834ZM11.5167 48.5369H17.5834V50.2702H11.5167V48.5369ZM23.6501 50.2702V41.6035H27.7234C28.6767 41.6035 29.5434 41.3435 30.2367 40.7369L34.9167 37.3569V41.1702L28.4167 50.2702H23.6501ZM43.5834 32.1569V50.2702H30.5834L41.8501 34.6702V34.5835L43.5834 32.1569Z" fill="#FB8A5D"/>
<path d="M41.851 44.4915V33.9254L34.1377 44.4915H41.851ZM40.1177 42.9026H37.431L40.1177 39.1687V42.9026Z" fill="#FB8A5D"/>
</g>
<defs>
<clipPath id="clip0_11_731">
<rect width="52" height="52" fill="white" transform="translate(0.25 0.00354004)"/>
</clipPath>
</defs>
</svg>
